<svg width="20" height="20" viewBox="0 0 13.3333 18.3333" fill="none" xmlns="http://www.w3.org/2000/svg">
<path d="M6.66667 11.6667C7.55072 11.6667 8.39857 11.3155 9.02369 10.6904C9.64881 10.0652 10 9.21739 10 8.33333V3.33333C10 2.44928 9.64881 1.60143 9.02369 0.976311C8.39857 0.35119 7.55072 0 6.66667 0C5.78261 0 4.93477 0.35119 4.30964 0.976311C3.68452 1.60143 3.33333 2.44928 3.33333 3.33333V8.33333C3.33333 9.21739 3.68452 10.0652 4.30964 10.6904C4.93477 11.3155 5.78261 11.6667 6.66667 11.6667ZM13.3333 8.33333C13.3333 8.11232 13.2455 7.90036 13.0893 7.74408C12.933 7.5878 12.721 7.5 12.5 7.5C12.279 7.5 12.067 7.5878 11.9107 7.74408C11.7545 7.90036 11.6667 8.11232 11.6667 8.33333C11.6667 9.65942 11.1399 10.9312 10.2022 11.8689C9.26452 12.8065 7.99275 13.3333 6.66667 13.3333C5.34058 13.3333 4.06881 12.8065 3.13113 11.8689C2.19345 10.9312 1.66667 9.65942 1.66667 8.33333C1.66667 8.11232 1.57887 7.90036 1.42259 7.74408C1.26631 7.5878 1.05435 7.5 0.833333 7.5C0.61232 7.5 0.400358 7.5878 0.244078 7.74408C0.0877975 7.90036 0 8.11232 0 8.33333C0.00147149 9.95608 0.594768 11.5226 1.66866 12.7391C2.74256 13.9557 4.22332 14.7388 5.83333 14.9417V16.6667H4.16667C3.94565 16.6667 3.73369 16.7545 3.57741 16.9107C3.42113 17.067 3.33333 17.279 3.33333 17.5C3.33333 17.721 3.42113 17.933 3.57741 18.0893C3.73369 18.2455 3.94565 18.3333 4.16667 18.3333H9.16667C9.38768 18.3333 9.59964 18.2455 9.75592 18.0893C9.9122 17.933 10 17.721 10 17.5C10 17.279 9.9122 17.067 9.75592 16.9107C9.59964 16.7545 9.38768 16.6667 9.16667 16.6667H7.5V14.9417C9.11002 14.7388 10.5908 13.9557 11.6647 12.7391C12.7386 11.5226 13.3319 9.95608 13.3333 8.33333Z" fill="url(#paint0_linear_mic)"/>
<defs>
<linearGradient id="paint0_linear_mic" x1="0" y1="0" x2="17.4414" y2="12.6847" gradientUnits="userSpaceOnUse">
<stop stop-color="#94259C"/>
<stop offset="0.740385" stop-color="#5B1987"/>
</linearGradient>
</defs>
</svg>
