<svg preserveAspectRatio="none" width="100%" height="100%" overflow="visible" style="display: block;" viewBox="0 0 20 20" fill="none" xmlns="http://www.w3.org/2000/svg">
<g id="microphone">
<path id="icon" d="M10 12.5C10.8841 12.5 11.7319 12.1488 12.357 11.5237C12.9821 10.8986 13.3333 10.0507 13.3333 9.16667V4.16667C13.3333 3.28261 12.9821 2.43477 12.357 1.80964C11.7319 1.18452 10.8841 0.833333 10 0.833333C9.11594 0.833333 8.2681 1.18452 7.64298 1.80964C7.01786 2.43477 6.66667 3.28261 6.66667 4.16667V9.16667C6.66667 10.0507 7.01786 10.8986 7.64298 11.5237C8.2681 12.1488 9.11594 12.5 10 12.5ZM16.6667 9.16667C16.6667 8.94565 16.5789 8.73369 16.4226 8.57741C16.2663 8.42113 16.0543 8.33333 15.8333 8.33333C15.6123 8.33333 15.4004 8.42113 15.2441 8.57741C15.0878 8.73369 15 8.94565 15 9.16667C15 10.4927 14.4732 11.7645 13.5355 12.7022C12.5979 13.6399 11.3261 14.1667 10 14.1667C8.67392 14.1667 7.40215 13.6399 6.46447 12.7022C5.52678 11.7645 5 10.4927 5 9.16667C5 8.94565 4.9122 8.73369 4.75592 8.57741C4.59964 8.42113 4.38768 8.33333 4.16667 8.33333C3.94565 8.33333 3.73369 8.42113 3.57741 8.57741C3.42113 8.73369 3.33333 8.94565 3.33333 9.16667C3.3348 10.7894 3.9281 12.3559 5.002 13.5725C6.07589 14.789 7.55665 15.5722 9.16667 15.775V17.5H7.5C7.27899 17.5 7.06702 17.5878 6.91074 17.7441C6.75446 17.9004 6.66667 18.1123 6.66667 18.3333C6.66667 18.5543 6.75446 18.7663 6.91074 18.9226C7.06702 19.0789 7.27899 19.1667 7.5 19.1667H12.5C12.721 19.1667 12.933 19.0789 13.0893 18.9226C13.2455 18.7663 13.3333 18.5543 13.3333 18.3333C13.3333 18.1123 13.2455 17.9004 13.0893 17.7441C12.933 17.5878 12.721 17.5 12.5 17.5H10.8333V15.775C12.4433 15.5722 13.9241 14.789 14.998 13.5725C16.0719 12.3559 16.6652 10.7894 16.6667 9.16667Z" fill="var(--fill-0, black)" fill-opacity="0.75"/>
</g>
</svg>
