<svg preserveAspectRatio="none" width="100%" height="100%" overflow="visible" style="display: block;" viewBox="0 0 20.8252 20" fill="none" xmlns="http://www.w3.org/2000/svg">
<g id="volume-down">
<path id="icon" fill-rule="evenodd" clip-rule="evenodd" d="M9.47713 2.25972C9.87603 2.22833 10.2658 2.38979 10.5257 2.69406C10.7584 2.96651 10.7954 3.29422 10.8095 3.4533C10.8253 3.63161 10.8252 3.85307 10.8252 4.07839C10.8252 4.08873 10.8252 4.09907 10.8252 4.10942L10.8252 15.9215C10.8252 16.1468 10.8253 16.3683 10.8095 16.5466C10.7954 16.7057 10.7584 17.0334 10.5257 17.3058C10.2658 17.6101 9.87603 17.7716 9.47713 17.7402C9.11993 17.7121 8.86207 17.5065 8.73962 17.404C8.60236 17.289 8.44579 17.1324 8.28649 16.9731L5.62647 14.3131C5.54928 14.2359 5.51062 14.1975 5.48135 14.1708L5.47914 14.1688L5.47615 14.1686C5.43657 14.1668 5.38209 14.1666 5.27292 14.1666L3.79864 14.1666C3.58832 14.1666 3.38348 14.1667 3.21001 14.1525C3.01952 14.1369 2.79474 14.1002 2.56856 13.985C2.25495 13.8252 1.99998 13.5702 1.8402 13.2566C1.72495 13.0304 1.68822 12.8056 1.67266 12.6151C1.65849 12.4417 1.65851 12.2368 1.65854 12.0265L1.65854 7.99994C1.65854 7.99108 1.65854 7.98221 1.65854 7.97336C1.65851 7.76304 1.65849 7.55822 1.67266 7.38475C1.68822 7.19426 1.72495 6.96948 1.8402 6.74329C1.99998 6.42969 2.25495 6.17472 2.56856 6.01493C2.79474 5.89969 3.01952 5.86296 3.21001 5.8474C3.38348 5.83323 3.58831 5.83325 3.79863 5.83328C3.80748 5.83328 3.81634 5.83328 3.82521 5.83328H5.27292C5.38209 5.83328 5.43657 5.83308 5.47615 5.83127L5.47914 5.83113L5.48135 5.82911C5.51062 5.80241 5.54928 5.76402 5.62648 5.68683L8.26455 3.04876C8.27186 3.04144 8.27918 3.03413 8.28648 3.02682C8.44578 2.86747 8.60236 2.71085 8.73962 2.59594C8.86207 2.49342 9.11993 2.28783 9.47713 2.25972ZM13.4694 5.98312C13.8469 5.71982 14.3663 5.81238 14.6296 6.18986C15.3831 7.27004 15.825 8.58462 15.825 9.99994C15.825 11.4153 15.3831 12.7299 14.6296 13.81C14.3663 14.1875 13.8469 14.2801 13.4694 14.0168C13.0919 13.7535 12.9993 13.234 13.2627 12.8565C13.8273 12.047 14.1584 11.0634 14.1584 9.99994C14.1584 8.93652 13.8273 7.95291 13.2627 7.14336C12.9993 6.76588 13.0919 6.24642 13.4694 5.98312Z" fill="var(--fill-0, black)" fill-opacity="0.6"/>
<path id="Line 2 (Stroke)" d="M1.04368 3.14312C0.492948 2.5922 0.426985 1.67478 1.00639 1.09499C1.58616 0.515221 2.50418 0.580749 3.05521 1.13159L18.441 16.5174C18.992 17.0684 19.0574 17.9864 18.4776 18.5662C17.8978 19.1456 16.9804 19.0798 16.4295 18.5289L1.04368 3.14312Z" fill="var(--fill-0, black)" fill-opacity="0.6" stroke="var(--stroke-0, #F9F4EC)" stroke-width="1.2" stroke-linecap="round"/>
</g>
</svg>
