<svg width="20" height="20" viewBox="0 0 20 20" fill="none" xmlns="http://www.w3.org/2000/svg">
<path fill-rule="evenodd" clip-rule="evenodd" d="M8.65193 2.25972C9.05083 2.22833 9.44065 2.38979 9.70051 2.69406C9.93321 2.96651 9.97018 3.29422 9.98427 3.4533C10.0001 3.63161 10 3.85307 10 4.07839C10 4.08873 10 4.09907 10 4.10942L10 15.9215C10 16.1468 10.0001 16.3683 9.98427 16.5466C9.97018 16.7057 9.93321 17.0334 9.70051 17.3058C9.44065 17.6101 9.05083 17.7716 8.65193 17.7402C8.29473 17.7121 8.03687 17.5065 7.91442 17.404C7.77716 17.289 7.62058 17.1324 7.46129 16.9731L4.80127 14.3131C4.72408 14.2359 4.68541 14.1975 4.65615 14.1708L4.65394 14.1688L4.65095 14.1686C4.61137 14.1668 4.55689 14.1666 4.44772 14.1666L2.97344 14.1666C2.76311 14.1666 2.55828 14.1667 2.38481 14.1525C2.19432 14.1369 1.96954 14.1002 1.74335 13.985C1.42975 13.8252 1.17478 13.5702 1.01499 13.2566C0.899746 13.0304 0.863023 12.8056 0.847459 12.6151C0.833286 12.4417 0.83331 12.2368 0.833335 12.0265L0.833338 7.99994C0.833338 7.99108 0.833336 7.98221 0.833335 7.97336C0.83331 7.76304 0.833286 7.55822 0.847459 7.38475C0.863023 7.19426 0.899746 6.96948 1.01499 6.74329C1.17478 6.42969 1.42975 6.17472 1.74335 6.01493C1.96954 5.89969 2.19432 5.86296 2.38481 5.8474C2.55828 5.83323 2.7631 5.83325 2.97342 5.83328C2.98227 5.83328 2.99114 5.83328 3 5.83328H4.44772C4.55689 5.83328 4.61137 5.83308 4.65095 5.83127L4.65394 5.83113L4.65615 5.82911C4.68541 5.80241 4.72408 5.76402 4.80127 5.68683L7.43935 3.04876C7.44666 3.04144 7.45398 3.03413 7.46128 3.02682C7.62058 2.86747 7.77716 2.71085 7.91442 2.59594C8.03687 2.49342 8.29473 2.28783 8.65193 2.25972ZM12.6442 5.98312C13.0217 5.71982 13.5411 5.81238 13.8044 6.18986C14.5579 7.27004 14.9998 8.58462 14.9998 9.99994C14.9998 11.4153 14.5579 12.7299 13.8044 13.81C13.5411 14.1875 13.0217 14.2801 12.6442 14.0168C12.2667 13.7535 12.1741 13.234 12.4374 12.8565C13.0021 12.047 13.3332 11.0634 13.3332 9.99994C13.3332 8.93652 13.0021 7.95291 12.4374 7.14336C12.1741 6.76588 12.2667 6.24642 12.6442 5.98312Z" fill="black" fill-opacity="0.43"/>
</svg>
