<svg preserveAspectRatio="none" width="100%" height="100%" overflow="visible" style="display: block;" viewBox="0 0 15 15" fill="none" xmlns="http://www.w3.org/2000/svg">
<path id="icon" fill-rule="evenodd" clip-rule="evenodd" d="M2.5 0C1.1686 0 0.0802825 1.04077 0.00424385 2.35311L0 2.5V5C0 5.46024 0.373096 5.83333 0.833333 5.83333C1.2607 5.83333 1.61292 5.51163 1.66106 5.09718L1.66667 5V2.845L4.41074 5.58926C4.73618 5.91469 5.26382 5.91469 5.58926 5.58926C5.88966 5.28885 5.91277 4.81616 5.65858 4.48925L5.58926 4.41074L2.84667 1.66667H5C5.46024 1.66667 5.83333 1.29357 5.83333 0.833333C5.83333 0.40597 5.51163 0.053744 5.09718 0.00560641L5 0H2.5ZM12.5 15C13.8314 15 14.9197 13.9592 14.9958 12.6469L15 12.5V10C15 9.53976 14.6269 9.16667 14.1667 9.16667C13.7393 9.16667 13.3871 9.48837 13.3389 9.90282L13.3333 10V12.155L10.5893 9.41074C10.2638 9.08531 9.73618 9.08531 9.41074 9.41074C9.11034 9.71115 9.08723 10.1838 9.34142 10.5107L9.41074 10.5893L12.1533 13.3333H10C9.53976 13.3333 9.16667 13.7064 9.16667 14.1667C9.16667 14.594 9.48837 14.9463 9.90282 14.9944L10 15H12.5ZM12.5 0C13.8314 0 14.9197 1.04077 14.9958 2.35311L15 2.5V5C15 5.46024 14.6269 5.83333 14.1667 5.83333C13.7393 5.83333 13.3871 5.51163 13.3389 5.09718L13.3333 5V2.845L10.5893 5.58926C10.2638 5.91469 9.73618 5.91469 9.41074 5.58926C9.11034 5.28885 9.08723 4.81616 9.34142 4.48925L9.41074 4.41074L12.1533 1.66667H10C9.53976 1.66667 9.16667 1.29357 9.16667 0.833333C9.16667 0.40597 9.48837 0.053744 9.90282 0.00560641L10 0H12.5ZM2.5 15C1.1686 15 0.0802825 13.9592 0.00424385 12.6469L0 12.5V10C0 9.53976 0.373096 9.16667 0.833333 9.16667C1.2607 9.16667 1.61292 9.48837 1.66106 9.90282L1.66667 10V12.155L4.41074 9.41074C4.73618 9.08531 5.26382 9.08531 5.58926 9.41074C5.88966 9.71115 5.91277 10.1838 5.65858 10.5107L5.58926 10.5893L2.84667 13.3333H5C5.46024 13.3333 5.83333 13.7064 5.83333 14.1667C5.83333 14.594 5.51163 14.9463 5.09718 14.9944L5 15H2.5Z" fill="var(--fill-0, black)" fill-opacity="0.65"/>
</svg>
