<svg preserveAspectRatio="none" width="100%" height="100%" overflow="visible" style="display: block;" viewBox="0 0 40 40" fill="none" xmlns="http://www.w3.org/2000/svg">
<g id="Sound button">
<path id="icon" fill-rule="evenodd" clip-rule="evenodd" d="M20.7353 12.2598C21.1342 12.2284 21.5241 12.3898 21.7839 12.6941C22.0166 12.9666 22.0536 13.2943 22.0677 13.4534C22.0835 13.6317 22.0835 13.8531 22.0834 14.0784C22.0834 14.0888 22.0834 14.0991 22.0834 14.1095L22.0834 25.9216C22.0835 26.1469 22.0835 26.3683 22.0677 26.5466C22.0536 26.7057 22.0166 27.0334 21.7839 27.3059C21.5241 27.6102 21.1342 27.7716 20.7353 27.7402C20.3781 27.7121 20.1203 27.5065 19.9978 27.404C19.8606 27.2891 19.704 27.1325 19.5447 26.9731L16.8847 24.3131C16.8075 24.2359 16.7688 24.1975 16.7396 24.1708L16.7373 24.1688L16.7344 24.1687C16.6948 24.1669 16.6403 24.1667 16.5311 24.1667L15.0568 24.1667C14.8465 24.1667 14.6417 24.1667 14.4682 24.1525C14.2777 24.137 14.053 24.1003 13.8268 23.985C13.5132 23.8252 13.2582 23.5703 13.0984 23.2567C12.9832 23.0305 12.9464 22.8057 12.9309 22.6152C12.9167 22.4417 12.9167 22.2369 12.9167 22.0266L12.9167 18C12.9167 17.9911 12.9167 17.9823 12.9167 17.9734C12.9167 17.7631 12.9167 17.5583 12.9309 17.3848C12.9464 17.1943 12.9832 16.9695 13.0984 16.7433C13.2582 16.4297 13.5132 16.1748 13.8268 16.015C14.053 15.8997 14.2777 15.863 14.4682 15.8475C14.6417 15.8333 14.8465 15.8333 15.0568 15.8333C15.0657 15.8333 15.0745 15.8333 15.0834 15.8333H16.5311C16.6403 15.8333 16.6948 15.8331 16.7344 15.8313L16.7373 15.8312L16.7396 15.8292C16.7688 15.8025 16.8075 15.7641 16.8847 15.6869L19.5228 13.0488C19.5301 13.0415 19.5374 13.0342 19.5447 13.0269C19.704 12.8675 19.8606 12.7109 19.9978 12.596C20.1203 12.4935 20.3781 12.2879 20.7353 12.2598ZM24.7276 15.9832C25.1051 15.7199 25.6245 15.8124 25.8878 16.1899C26.6413 17.2701 27.0833 18.5847 27.0833 20C27.0833 21.4153 26.6413 22.7299 25.8878 23.8101C25.6245 24.1876 25.1051 24.2801 24.7276 24.0168C24.3501 23.7535 24.2576 23.2341 24.5209 22.8566C25.0855 22.047 25.4166 21.0634 25.4166 20C25.4166 18.9366 25.0855 17.953 24.5209 17.1434C24.2576 16.7659 24.3501 16.2465 24.7276 15.9832Z" fill="var(--fill-0, black)" fill-opacity="0.65"/>
</g>
</svg>
